<svg width="110" height="113" viewBox="0 0 110 113" fill="none" xmlns="http://www.w3.org/2000/svg">
<g filter="url(#filter0_d_171_241)">
<g filter="url(#filter1_d_171_241)">
<rect x="6.63611" y="4.89697" width="97.3639" height="97.3639" rx="11" fill="#F7F7F7"/>
<rect x="5.63611" y="3.89697" width="99.3639" height="99.3639" rx="12" stroke="white" stroke-width="2"/>
</g>
</g>
<path fill-rule="evenodd" clip-rule="evenodd" d="M54.5 23C38.2086 23 25 36.2086 25 52.5C25 68.7914 38.2086 82 54.5 82C70.7914 82 84 68.7914 84 52.5C84 36.2086 70.7914 23 54.5 23ZM68.1732 43.0625C67.7308 47.7259 65.8083 59.0465 64.8324 64.2705C64.4194 66.483 63.6032 67.223 62.8165 67.2942C61.1031 67.4516 59.8026 66.161 58.1432 65.0744C55.5473 63.3732 54.0796 62.3137 51.5598 60.6518C48.6467 58.7319 50.5347 57.6772 52.1941 55.954C52.6292 55.5016 60.1763 48.6355 60.3238 48.0135C60.341 47.9349 60.3607 47.6448 60.1861 47.4924C60.0116 47.34 59.7584 47.3916 59.5765 47.4334C59.3159 47.4924 55.1687 50.2334 47.1324 55.6565C45.9548 56.4653 44.8879 56.8586 43.9316 56.839C42.8795 56.8168 40.8538 56.244 39.3468 55.7524C37.5006 55.1525 36.0305 54.833 36.1584 53.8152C36.2247 53.2842 36.9549 52.7409 38.3512 52.1853C46.9505 48.4388 52.6857 45.9682 55.5546 44.7735C63.7482 41.3662 65.4494 40.7738 66.5606 40.7541C67.952 40.7344 68.2863 41.8825 68.1732 43.0625Z" fill="url(#paint0_linear_171_241)"/>
<defs>
<filter id="filter0_d_171_241" x="0.636108" y="2.89697" width="109.364" height="109.364" filterUnits="userSpaceOnUse" color-interpolation-filters="sRGB">
<feFlood flood-opacity="0" result="BackgroundImageFix"/>
<feColorMatrix in="SourceAlpha" type="matrix" values="0 0 0 0 0 0 0 0 0 0 0 0 0 0 0 0 0 0 127 0" result="hardAlpha"/>
<feOffset dy="4"/>
<feGaussianBlur stdDeviation="2"/>
<feComposite in2="hardAlpha" operator="out"/>
<feColorMatrix type="matrix" values="0 0 0 0 0 0 0 0 0 0 0 0 0 0 0 0 0 0 0.25 0"/>
<feBlend mode="normal" in2="BackgroundImageFix" result="effect1_dropShadow_171_241"/>
<feBlend mode="normal" in="SourceGraphic" in2="effect1_dropShadow_171_241" result="shape"/>
</filter>
<filter id="filter1_d_171_241" x="0.636108" y="0.896973" width="109.364" height="109.364" filterUnits="userSpaceOnUse" color-interpolation-filters="sRGB">
<feFlood flood-opacity="0" result="BackgroundImageFix"/>
<feColorMatrix in="SourceAlpha" type="matrix" values="0 0 0 0 0 0 0 0 0 0 0 0 0 0 0 0 0 0 127 0" result="hardAlpha"/>
<feOffset dy="2"/>
<feGaussianBlur stdDeviation="2"/>
<feComposite in2="hardAlpha" operator="out"/>
<feColorMatrix type="matrix" values="0 0 0 0 0 0 0 0 0 0 0 0 0 0 0 0 0 0 0.25 0"/>
<feBlend mode="normal" in2="BackgroundImageFix" result="effect1_dropShadow_171_241"/>
<feBlend mode="normal" in="SourceGraphic" in2="effect1_dropShadow_171_241" result="shape"/>
</filter>
<linearGradient id="paint0_linear_171_241" x1="54.5" y1="23" x2="54.5" y2="82" gradientUnits="userSpaceOnUse">
<stop stop-color="#AB3130"/>
<stop offset="1" stop-color="#540302"/>
</linearGradient>
</defs>
</svg>
