<svg width="75" height="75" viewBox="0 0 75 75" fill="none" xmlns="http://www.w3.org/2000/svg">
<g filter="url(#filter0_d_162_117)">
<rect x="6" y="4" width="63" height="63" rx="11" fill="#F7F7F7"/>
<rect x="5" y="3" width="65" height="65" rx="12" stroke="white" stroke-width="2"/>
</g>
<g clip-path="url(#clip0_162_117)">
<path d="M38 16C34.2422 16 30.5687 17.1143 27.4442 19.2021C24.3196 21.2898 21.8844 24.2572 20.4463 27.729C19.0082 31.2008 18.632 35.0211 19.3651 38.7067C20.0982 42.3924 21.9078 45.7778 24.565 48.435C27.2222 51.0922 30.6077 52.9018 34.2933 53.6349C37.9789 54.368 41.7992 53.9918 45.271 52.5537C48.7428 51.1156 51.7102 48.6804 53.7979 45.5558C55.8857 42.4313 57 38.7578 57 35C56.9946 29.9626 54.991 25.133 51.429 21.571C47.867 18.009 43.0374 16.0054 38 16ZM51.6911 27.0833H46.5912C45.4495 24.4376 43.9463 21.963 42.1246 19.7303C46.1565 20.8275 49.5937 23.4693 51.6911 27.0833ZM45.125 35C45.112 36.6121 44.858 38.2131 44.3713 39.75H31.6287C31.142 38.2131 30.888 36.6121 30.875 35C30.888 33.3879 31.142 31.7869 31.6287 30.25H44.3713C44.858 31.7869 45.112 33.3879 45.125 35ZM32.8985 42.9167H43.1015C41.7576 45.5699 40.0396 48.0163 38 50.181C35.9597 48.0169 34.2416 45.5704 32.8985 42.9167ZM32.8985 27.0833C34.2424 24.4301 35.9604 21.9837 38 19.819C40.0403 21.9831 41.7585 24.4296 43.1015 27.0833H32.8985ZM33.8833 19.7303C32.0588 21.9625 30.5529 24.4371 29.4088 27.0833H24.3089C26.4082 23.4677 29.8485 20.8256 33.8833 19.7303ZM22.8966 30.25H28.3417C27.9312 31.8003 27.7184 33.3963 27.7083 35C27.7184 36.6037 27.9312 38.1997 28.3417 39.75H22.8966C21.9234 36.6581 21.9234 33.3419 22.8966 30.25ZM24.3089 42.9167H29.4088C30.5529 45.5629 32.0588 48.0375 33.8833 50.2697C29.8485 49.1744 26.4082 46.5323 24.3089 42.9167ZM42.1246 50.2697C43.9463 48.037 45.4495 45.5624 46.5912 42.9167H51.6911C49.5937 46.5307 46.1565 49.1725 42.1246 50.2697ZM53.1034 39.75H47.6583C48.0688 38.1997 48.2816 36.6037 48.2917 35C48.2816 33.3963 48.0688 31.8003 47.6583 30.25H53.1003C54.0735 33.3419 54.0735 36.6581 53.1003 39.75H53.1034Z" fill="#AB3130"/>
</g>
<defs>
<filter id="filter0_d_162_117" x="0" y="0" width="75" height="75" filterUnits="userSpaceOnUse" color-interpolation-filters="sRGB">
<feFlood flood-opacity="0" result="BackgroundImageFix"/>
<feColorMatrix in="SourceAlpha" type="matrix" values="0 0 0 0 0 0 0 0 0 0 0 0 0 0 0 0 0 0 127 0" result="hardAlpha"/>
<feOffset dy="2"/>
<feGaussianBlur stdDeviation="2"/>
<feComposite in2="hardAlpha" operator="out"/>
<feColorMatrix type="matrix" values="0 0 0 0 0 0 0 0 0 0 0 0 0 0 0 0 0 0 0.25 0"/>
<feBlend mode="normal" in2="BackgroundImageFix" result="effect1_dropShadow_162_117"/>
<feBlend mode="normal" in="SourceGraphic" in2="effect1_dropShadow_162_117" result="shape"/>
</filter>
<clipPath id="clip0_162_117">
<rect width="38" height="38" fill="white" transform="translate(19 16)"/>
</clipPath>
</defs>
</svg>
