<svg width="75" height="75" viewBox="0 0 75 75" fill="none" xmlns="http://www.w3.org/2000/svg">
<g filter="url(#filter0_d_162_119)">
<rect x="6" y="4" width="63" height="63" rx="11" fill="#F7F7F7"/>
<rect x="5" y="3" width="65" height="65" rx="12" stroke="white" stroke-width="2"/>
</g>
<g clip-path="url(#clip0_162_119)">
<path d="M30.5611 50.1596C29.3689 50.1601 28.2255 49.6863 27.3832 48.8425L17.7754 39.2383C16.7415 38.2041 16.7415 36.5278 17.7754 35.4936C18.8095 34.4598 20.4858 34.4598 21.52 35.4936L30.5611 44.5348L54.48 20.6158C55.5142 19.582 57.1905 19.582 58.2246 20.6158C59.2585 21.65 59.2585 23.3263 58.2246 24.3604L33.739 48.8425C32.8967 49.6863 31.7533 50.1601 30.5611 50.1596Z" fill="#AB3130"/>
</g>
<defs>
<filter id="filter0_d_162_119" x="0" y="0" width="75" height="75" filterUnits="userSpaceOnUse" color-interpolation-filters="sRGB">
<feFlood flood-opacity="0" result="BackgroundImageFix"/>
<feColorMatrix in="SourceAlpha" type="matrix" values="0 0 0 0 0 0 0 0 0 0 0 0 0 0 0 0 0 0 127 0" result="hardAlpha"/>
<feOffset dy="2"/>
<feGaussianBlur stdDeviation="2"/>
<feComposite in2="hardAlpha" operator="out"/>
<feColorMatrix type="matrix" values="0 0 0 0 0 0 0 0 0 0 0 0 0 0 0 0 0 0 0.25 0"/>
<feBlend mode="normal" in2="BackgroundImageFix" result="effect1_dropShadow_162_119"/>
<feBlend mode="normal" in="SourceGraphic" in2="effect1_dropShadow_162_119" result="shape"/>
</filter>
<clipPath id="clip0_162_119">
<rect width="42" height="42" fill="white" transform="translate(17 14)"/>
</clipPath>
</defs>
</svg>
