<svg width="70" height="70" viewBox="0 0 70 70" fill="none" xmlns="http://www.w3.org/2000/svg">
<g filter="url(#filter0_d_171_242)">
<rect x="6" y="4" width="58" height="58" rx="11" fill="#F7F7F7"/>
<rect x="5" y="3" width="60" height="60" rx="12" stroke="white" stroke-width="2"/>
</g>
<g clip-path="url(#clip0_171_242)">
<path d="M28.6118 46.4961C27.5142 46.4966 26.4616 46.0603 25.6861 45.2836L16.8408 36.4416C15.889 35.4895 15.889 33.9462 16.8408 32.9941C17.7929 32.0424 19.3362 32.0424 20.2882 32.9941L28.6118 41.3177L50.6324 19.2971C51.5845 18.3453 53.1278 18.3453 54.0798 19.2971C55.0316 20.2491 55.0316 21.7924 54.0798 22.7445L31.5375 45.2836C30.762 46.0603 29.7094 46.4966 28.6118 46.4961Z" fill="#AB3130"/>
</g>
<defs>
<filter id="filter0_d_171_242" x="0" y="0" width="70" height="70" filterUnits="userSpaceOnUse" color-interpolation-filters="sRGB">
<feFlood flood-opacity="0" result="BackgroundImageFix"/>
<feColorMatrix in="SourceAlpha" type="matrix" values="0 0 0 0 0 0 0 0 0 0 0 0 0 0 0 0 0 0 127 0" result="hardAlpha"/>
<feOffset dy="2"/>
<feGaussianBlur stdDeviation="2"/>
<feComposite in2="hardAlpha" operator="out"/>
<feColorMatrix type="matrix" values="0 0 0 0 0 0 0 0 0 0 0 0 0 0 0 0 0 0 0.25 0"/>
<feBlend mode="normal" in2="BackgroundImageFix" result="effect1_dropShadow_171_242"/>
<feBlend mode="normal" in="SourceGraphic" in2="effect1_dropShadow_171_242" result="shape"/>
</filter>
<clipPath id="clip0_171_242">
<rect width="38.6667" height="38.6667" fill="white" transform="translate(16.127 13.2063)"/>
</clipPath>
</defs>
</svg>
