<svg width="75" height="75" viewBox="0 0 75 75" fill="none" xmlns="http://www.w3.org/2000/svg">
<g filter="url(#filter0_d_162_118)">
<rect x="6" y="4" width="63" height="63" rx="11" fill="url(#paint0_linear_162_118)"/>
<rect x="5" y="3" width="65" height="65" rx="12" stroke="white" stroke-width="2"/>
</g>
<g clip-path="url(#clip0_162_118)">
<path d="M48.316 17.5112L28.504 37.3232C27.7473 38.0759 27.1474 38.9711 26.739 39.9571C26.3307 40.9431 26.122 42.0004 26.125 43.0676V45.25C26.125 45.681 26.2962 46.0943 26.6009 46.399C26.9057 46.7038 27.319 46.875 27.75 46.875H29.9323C30.9996 46.878 32.0568 46.6693 33.0429 46.2609C34.0289 45.8526 34.9241 45.2527 35.6767 44.496L55.4887 24.684C56.4384 23.732 56.9717 22.4423 56.9717 21.0976C56.9717 19.753 56.4384 18.4632 55.4887 17.5112C54.5229 16.5881 53.2384 16.0729 51.9023 16.0729C50.5663 16.0729 49.2817 16.5881 48.316 17.5112ZM53.191 22.3862L33.379 42.1982C32.4627 43.1089 31.2242 43.6216 29.9323 43.625H29.375V43.0676C29.3784 41.7757 29.891 40.5373 30.8017 39.621L50.6137 19.809C50.9608 19.4774 51.4223 19.2924 51.9023 19.2924C52.3824 19.2924 52.8439 19.4774 53.191 19.809C53.5321 20.1511 53.7237 20.6145 53.7237 21.0976C53.7237 21.5807 53.5321 22.0442 53.191 22.3862Z" fill="#F5F5F5"/>
<path d="M55.375 30.5909C54.944 30.5909 54.5307 30.7621 54.226 31.0668C53.9212 31.3716 53.75 31.7849 53.75 32.2159V40.375H47.25C45.9571 40.375 44.7171 40.8886 43.8029 41.8029C42.8886 42.7171 42.375 43.9571 42.375 45.25V51.75H26.125C24.8321 51.75 23.5921 51.2364 22.6779 50.3221C21.7636 49.4079 21.25 48.1679 21.25 46.875V24.125C21.25 22.8321 21.7636 21.5921 22.6779 20.6779C23.5921 19.7636 24.8321 19.25 26.125 19.25H40.8183C41.2492 19.25 41.6626 19.0788 41.9673 18.774C42.272 18.4693 42.4433 18.056 42.4433 17.625C42.4433 17.194 42.272 16.7807 41.9673 16.476C41.6626 16.1712 41.2492 16 40.8183 16H26.125C23.9709 16.0026 21.9058 16.8594 20.3826 18.3826C18.8594 19.9058 18.0026 21.9709 18 24.125L18 46.875C18.0026 49.0291 18.8594 51.0942 20.3826 52.6174C21.9058 54.1406 23.9709 54.9974 26.125 55H44.5574C45.6249 55.0031 46.6824 54.7944 47.6686 54.386C48.6549 53.9777 49.5505 53.3777 50.3034 52.621L54.6194 48.3018C55.3762 47.5492 55.9763 46.654 56.3849 45.668C56.7936 44.682 57.0026 43.6247 57 42.5574V32.2159C57 31.7849 56.8288 31.3716 56.5241 31.0668C56.2193 30.7621 55.806 30.5909 55.375 30.5909ZM48.0056 50.3233C47.3524 50.9749 46.5263 51.426 45.625 51.6233V45.25C45.625 44.819 45.7962 44.4057 46.101 44.101C46.4057 43.7962 46.819 43.625 47.25 43.625H53.6281C53.4271 44.5245 52.9765 45.349 52.3281 46.004L48.0056 50.3233Z" fill="#F5F5F5"/>
</g>
<defs>
<filter id="filter0_d_162_118" x="0" y="0" width="75" height="75" filterUnits="userSpaceOnUse" color-interpolation-filters="sRGB">
<feFlood flood-opacity="0" result="BackgroundImageFix"/>
<feColorMatrix in="SourceAlpha" type="matrix" values="0 0 0 0 0 0 0 0 0 0 0 0 0 0 0 0 0 0 127 0" result="hardAlpha"/>
<feOffset dy="2"/>
<feGaussianBlur stdDeviation="2"/>
<feComposite in2="hardAlpha" operator="out"/>
<feColorMatrix type="matrix" values="0 0 0 0 0 0 0 0 0 0 0 0 0 0 0 0 0 0 0.25 0"/>
<feBlend mode="normal" in2="BackgroundImageFix" result="effect1_dropShadow_162_118"/>
<feBlend mode="normal" in="SourceGraphic" in2="effect1_dropShadow_162_118" result="shape"/>
</filter>
<linearGradient id="paint0_linear_162_118" x1="37.5" y1="4" x2="37.5" y2="67" gradientUnits="userSpaceOnUse">
<stop stop-color="#AB3130"/>
<stop offset="1" stop-color="#540302"/>
</linearGradient>
<clipPath id="clip0_162_118">
<rect width="39" height="39" fill="white" transform="translate(18 16)"/>
</clipPath>
</defs>
</svg>
