<svg width="75" height="75" viewBox="0 0 75 75" fill="none" xmlns="http://www.w3.org/2000/svg">
<g filter="url(#filter0_d_162_120)">
<rect x="6" y="4" width="63" height="63" rx="11" fill="url(#paint0_linear_162_120)"/>
<rect x="5" y="3" width="65" height="65" rx="12" stroke="white" stroke-width="2"/>
</g>
<g clip-path="url(#clip0_162_120)">
<path d="M45.0752 38.5H30.9247C28.6249 38.5028 26.4201 39.4176 24.7938 41.0438C23.1676 42.6701 22.2528 44.8749 22.25 47.1748V56H53.75V47.1748C53.7472 44.8749 52.8324 42.6701 51.2062 41.0438C49.5799 39.4176 47.3751 38.5028 45.0752 38.5Z" fill="#F5F5F5"/>
<path d="M38 35C43.799 35 48.5 30.299 48.5 24.5C48.5 18.701 43.799 14 38 14C32.201 14 27.5 18.701 27.5 24.5C27.5 30.299 32.201 35 38 35Z" fill="#F5F5F5"/>
</g>
<defs>
<filter id="filter0_d_162_120" x="0" y="0" width="75" height="75" filterUnits="userSpaceOnUse" color-interpolation-filters="sRGB">
<feFlood flood-opacity="0" result="BackgroundImageFix"/>
<feColorMatrix in="SourceAlpha" type="matrix" values="0 0 0 0 0 0 0 0 0 0 0 0 0 0 0 0 0 0 127 0" result="hardAlpha"/>
<feOffset dy="2"/>
<feGaussianBlur stdDeviation="2"/>
<feComposite in2="hardAlpha" operator="out"/>
<feColorMatrix type="matrix" values="0 0 0 0 0 0 0 0 0 0 0 0 0 0 0 0 0 0 0.25 0"/>
<feBlend mode="normal" in2="BackgroundImageFix" result="effect1_dropShadow_162_120"/>
<feBlend mode="normal" in="SourceGraphic" in2="effect1_dropShadow_162_120" result="shape"/>
</filter>
<linearGradient id="paint0_linear_162_120" x1="37.5" y1="4" x2="37.5" y2="67" gradientUnits="userSpaceOnUse">
<stop stop-color="#AB3130"/>
<stop offset="1" stop-color="#540302"/>
</linearGradient>
<clipPath id="clip0_162_120">
<rect width="42" height="42" fill="white" transform="translate(17 14)"/>
</clipPath>
</defs>
</svg>
